<?xml version="1.0" encoding="UTF-8" standalone="no"?>
<svg xmlns="http://www.w3.org/2000/svg" width="1024" height="730" viewBox="0 0 1024 730" font-family="Arial, Helvetica, sans-serif">
<rect x="15" y="15" width="145" height="700" rx="3" fill="#F7F7F7" stroke="#E4E4E4" stroke-width="1"/>
<text x="35" y="46" font-family="Arial, Helvetica, sans-serif" font-size="13" font-weight="bold" fill="#4D4D4D">Systems</text>
<line x1="15" y1="64" x2="160" y2="64" stroke="#E4E4E4" stroke-width="1"/>
<rect x="172" y="15" width="290" height="700" rx="3" fill="#F7F7F7" stroke="#E4E4E4" stroke-width="1"/>
<text x="192" y="46" font-family="Arial, Helvetica, sans-serif" font-size="13" font-weight="bold" fill="#4D4D4D">Customer</text>
<line x1="172" y1="64" x2="462" y2="64" stroke="#E4E4E4" stroke-width="1"/>
<rect x="474" y="15" width="536" height="700" rx="3" fill="#F7F7F7" stroke="#E4E4E4" stroke-width="1"/>
<text x="494" y="46" font-family="Arial, Helvetica, sans-serif" font-size="13" font-weight="bold" fill="#4D4D4D">Expert Network</text>
<line x1="474" y1="64" x2="1010" y2="64" stroke="#E4E4E4" stroke-width="1"/>
<polyline points="129.0,110.0 200.0,110.0" fill="none" stroke="#939598" stroke-width="1.4" stroke-linejoin="round" stroke-linecap="round"/>
<polygon points="200.0,110.0 192.5,105.8 192.5,114.2" fill="#939598"/>
<polyline points="302.0,110.0 320.0,108.0" fill="none" stroke="#939598" stroke-width="1.4" stroke-linejoin="round" stroke-linecap="round"/>
<polygon points="320.0,108.0 312.5,103.8 312.5,112.2" fill="#939598"/>
<polyline points="302.0,168.0 380.0,168.0 380.0,128.0" fill="none" stroke="#939598" stroke-width="1.4" stroke-linejoin="round" stroke-linecap="round"/>
<polygon points="380.0,128.0 375.8,135.5 384.2,135.5" fill="#939598"/>
<polyline points="438.0,108.0 772.0,110.0" fill="none" stroke="#939598" stroke-width="1.4" stroke-linejoin="round" stroke-linecap="round"/>
<polygon points="772.0,110.0 764.5,105.8 764.5,114.2" fill="#939598"/>
<polyline points="438.0,216.0 540.0,216.0 540.0,110.0" fill="none" stroke="#939598" stroke-width="1.4" stroke-linejoin="round" stroke-linecap="round"/>
<polyline points="821.0,123.0 821.0,148.0" fill="none" stroke="#939598" stroke-width="1.4" stroke-linejoin="round" stroke-linecap="round"/>
<polygon points="821.0,148.0 816.8,140.5 825.2,140.5" fill="#939598"/>
<polyline points="822.0,202.0 821.0,226.0" fill="none" stroke="#939598" stroke-width="1.4" stroke-linejoin="round" stroke-linecap="round"/>
<polygon points="821.0,226.0 816.8,218.5 825.2,218.5" fill="#939598"/>
<polyline points="775.0,274.0 731.0,278.0" fill="none" stroke="#939598" stroke-width="1.4" stroke-linejoin="round" stroke-linecap="round"/>
<polygon points="731.0,278.0 738.5,273.8 738.5,282.2" fill="#939598"/>
<text x="752.0" y="270.0" text-anchor="middle" font-family="Arial, Helvetica, sans-serif" font-size="8.5" fill="#58595B">Yes</text>
<polyline points="867.0,274.0 943.0,274.0 943.0,359.0" fill="none" stroke="#939598" stroke-width="1.4" stroke-linejoin="round" stroke-linecap="round"/>
<polygon points="943.0,359.0 938.8,351.5 947.2,351.5" fill="#939598"/>
<text x="884.0" y="267.0" text-anchor="middle" font-family="Arial, Helvetica, sans-serif" font-size="8.5" fill="#58595B">No</text>
<polyline points="893.0,411.0 772.0,411.0 772.0,432.0" fill="none" stroke="#939598" stroke-width="1.4" stroke-linejoin="round" stroke-linecap="round"/>
<polygon points="772.0,432.0 767.8,424.5 776.2,424.5" fill="#939598"/>
<text x="852.0" y="404.0" text-anchor="middle" font-family="Arial, Helvetica, sans-serif" font-size="8.5" fill="#58595B">No</text>
<polyline points="943.0,461.0 943.0,569.0" fill="none" stroke="#939598" stroke-width="1.4" stroke-linejoin="round" stroke-linecap="round"/>
<polygon points="943.0,569.0 938.8,561.5 947.2,561.5" fill="#939598"/>
<text x="955.0" y="486.0" text-anchor="start" font-family="Arial, Helvetica, sans-serif" font-size="8.5" fill="#58595B">Yes</text>
<polyline points="772.0,462.0 772.0,482.0" fill="none" stroke="#939598" stroke-width="1.4" stroke-linejoin="round" stroke-linecap="round"/>
<polygon points="772.0,482.0 767.8,474.5 776.2,474.5" fill="#939598"/>
<polyline points="772.0,512.0 772.0,537.0" fill="none" stroke="#939598" stroke-width="1.4" stroke-linejoin="round" stroke-linecap="round"/>
<polygon points="772.0,537.0 767.8,529.5 776.2,529.5" fill="#939598"/>
<polyline points="818.0,585.0 891.0,585.0" fill="none" stroke="#939598" stroke-width="1.4" stroke-linejoin="round" stroke-linecap="round"/>
<polygon points="891.0,585.0 883.5,580.8 883.5,589.2" fill="#939598"/>
<text x="840.0" y="578.0" text-anchor="middle" font-family="Arial, Helvetica, sans-serif" font-size="8.5" fill="#58595B">No</text>
<polyline points="726.0,585.0 673.0,585.0 673.0,298.0" fill="none" stroke="#939598" stroke-width="1.4" stroke-linejoin="round" stroke-linecap="round"/>
<polygon points="673.0,298.0 668.8,305.5 677.2,305.5" fill="#939598"/>
<text x="706.0" y="578.0" text-anchor="middle" font-family="Arial, Helvetica, sans-serif" font-size="8.5" fill="#58595B">Yes</text>
<polyline points="943.0,599.0 945.0,640.0" fill="none" stroke="#939598" stroke-width="1.4" stroke-linejoin="round" stroke-linecap="round"/>
<polygon points="945.0,640.0 940.8,632.5 949.2,632.5" fill="#939598"/>
<polyline points="890.0,664.0 598.0,664.0" fill="none" stroke="#939598" stroke-width="1.4" stroke-linejoin="round" stroke-linecap="round"/>
<polygon points="598.0,664.0 605.5,659.8 605.5,668.2" fill="#939598"/>
<polyline points="619.0,278.0 547.0,278.0 547.0,320.0" fill="none" stroke="#939598" stroke-width="1.4" stroke-linejoin="round" stroke-linecap="round"/>
<polygon points="547.0,320.0 542.8,312.5 551.2,312.5" fill="#939598"/>
<polyline points="497.0,340.0 436.0,340.0" fill="none" stroke="#939598" stroke-width="1.4" stroke-linejoin="round" stroke-linecap="round"/>
<polygon points="436.0,340.0 443.5,335.8 443.5,344.2" fill="#939598"/>
<polyline points="380.0,320.0 380.0,236.0" fill="none" stroke="#939598" stroke-width="1.4" stroke-linejoin="round" stroke-linecap="round"/>
<polygon points="380.0,236.0 375.8,243.5 384.2,243.5" fill="#939598"/>
<polyline points="496.0,664.0 330.0,664.0 330.0,423.0 300.0,423.0" fill="none" stroke="#939598" stroke-width="1.4" stroke-linejoin="round" stroke-linecap="round"/>
<polygon points="300.0,423.0 307.5,418.8 307.5,427.2" fill="#939598"/>
<polyline points="252.0,469.0 252.0,494.0" fill="none" stroke="#939598" stroke-width="1.4" stroke-linejoin="round" stroke-linecap="round"/>
<polygon points="252.0,494.0 247.8,486.5 256.2,486.5" fill="#939598"/>
<text x="261.0" y="486.0" text-anchor="start" font-family="Arial, Helvetica, sans-serif" font-size="8.5" fill="#58595B">Yes</text>
<polyline points="206.0,423.0 206.0,340.0 324.0,340.0" fill="none" stroke="#939598" stroke-width="1.4" stroke-linejoin="round" stroke-linecap="round"/>
<polygon points="324.0,340.0 316.5,335.8 316.5,344.2" fill="#939598"/>
<text x="201.0" y="412.0" text-anchor="end" font-family="Arial, Helvetica, sans-serif" font-size="8.5" fill="#58595B">No</text>
<polyline points="252.0,526.0 252.0,563.0" fill="none" stroke="#939598" stroke-width="1.4" stroke-linejoin="round" stroke-linecap="round"/>
<polygon points="252.0,563.0 247.8,555.5 256.2,555.5" fill="#939598"/>
<rect x="34.0" y="93.0" width="96.0" height="34.0" rx="12" ry="12" fill="#A7A9AC"/>
<text x="82.0" y="104.5" text-anchor="middle" font-family="Arial, Helvetica, sans-serif" font-size="9" font-weight="bold" fill="#ffffff" dominant-baseline="middle"><tspan x="82.0" dy="0.0">Monitoring</tspan><tspan x="82.0" dy="11.0">and alerting</tspan></text>
<rect x="200.0" y="97.0" width="104.0" height="26.0" rx="3" ry="3" fill="#A7A9AC"/>
<text x="252.0" y="110.0" text-anchor="middle" font-family="Arial, Helvetica, sans-serif" font-size="9" font-weight="bold" fill="#ffffff" dominant-baseline="middle"><tspan x="252.0" dy="0.0">Customer Service Desk</tspan></text>
<rect x="200.0" y="155.0" width="104.0" height="26.0" rx="3" ry="3" fill="#A7A9AC"/>
<text x="252.0" y="168.0" text-anchor="middle" font-family="Arial, Helvetica, sans-serif" font-size="9" font-weight="bold" fill="#ffffff" dominant-baseline="middle"><tspan x="252.0" dy="0.0">Authorized person</tspan></text>
<rect x="322.0" y="89.0" width="116.0" height="38.0" rx="2" ry="2" fill="#7DB338"/>
<text x="380.0" y="102.5" text-anchor="middle" font-family="Arial, Helvetica, sans-serif" font-size="9" font-weight="bold" fill="#ffffff" dominant-baseline="middle"><tspan x="380.0" dy="0.0">Create ticket</tspan><tspan x="380.0" dy="11.0">Response time starts</tspan></text>
<rect x="322.0" y="197.0" width="116.0" height="38.0" rx="2" ry="2" fill="#7DB338"/>
<text x="380.0" y="210.5" text-anchor="middle" font-family="Arial, Helvetica, sans-serif" font-size="9" font-weight="bold" fill="#ffffff" dominant-baseline="middle"><tspan x="380.0" dy="0.0">Update ticket</tspan><tspan x="380.0" dy="11.0">Resolution time resumes</tspan></text>
<rect x="322.0" y="321.0" width="116.0" height="38.0" rx="2" ry="2" fill="#7DB338"/>
<text x="380.0" y="334.5" text-anchor="middle" font-family="Arial, Helvetica, sans-serif" font-size="9" font-weight="bold" fill="#ffffff" dominant-baseline="middle"><tspan x="380.0" dy="0.0">Contact 3rd party</tspan><tspan x="380.0" dy="11.0">Transfer incident</tspan></text>
<polygon points="252.0,376.0 299.0,423.0 252.0,470.0 205.0,423.0" fill="#29ABE2"/>
<text x="252.0" y="417.5" text-anchor="middle" font-family="Arial, Helvetica, sans-serif" font-size="8.5" font-weight="bold" fill="#ffffff" dominant-baseline="middle"><tspan x="252.0" dy="0.0">Workaround</tspan><tspan x="252.0" dy="11.0">or fix ok?</tspan></text>
<rect x="200.0" y="496.0" width="104.0" height="30.0" rx="2" ry="2" fill="#7DB338"/>
<text x="252.0" y="511.0" text-anchor="middle" font-family="Arial, Helvetica, sans-serif" font-size="9" font-weight="bold" fill="#ffffff" dominant-baseline="middle"><tspan x="252.0" dy="0.0">Close ticket</tspan></text>
<rect x="200.0" y="565.0" width="104.0" height="30.0" rx="12" ry="12" fill="#A7A9AC"/>
<text x="252.0" y="580.0" text-anchor="middle" font-family="Arial, Helvetica, sans-serif" font-size="9" font-weight="bold" fill="#ffffff" dominant-baseline="middle"><tspan x="252.0" dy="0.0">Intervention finished</tspan></text>
<rect x="773.0" y="97.0" width="96.0" height="26.0" rx="3" ry="3" fill="#A7A9AC"/>
<text x="821.0" y="110.0" text-anchor="middle" font-family="Arial, Helvetica, sans-serif" font-size="9" font-weight="bold" fill="#ffffff" dominant-baseline="middle"><tspan x="821.0" dy="0.0">Standby team</tspan></text>
<rect x="760.0" y="149.0" width="124.0" height="54.0" rx="2" ry="2" fill="#7DB338"/>
<text x="822.0" y="159.5" text-anchor="middle" font-family="Arial, Helvetica, sans-serif" font-size="9" font-weight="bold" fill="#ffffff" dominant-baseline="middle"><tspan x="822.0" dy="0.0">Intake of incident</tspan><tspan x="822.0" dy="11.0">Response time stops</tspan><tspan x="822.0" dy="11.0">Resolution time starts</tspan><tspan x="822.0" dy="11.0">Incident evaluation</tspan></text>
<polygon points="821.0,227.0 868.0,274.0 821.0,321.0 774.0,274.0" fill="#29ABE2"/>
<text x="821.0" y="268.5" text-anchor="middle" font-family="Arial, Helvetica, sans-serif" font-size="8.5" font-weight="bold" fill="#ffffff" dominant-baseline="middle"><tspan x="821.0" dy="0.0">External</tspan><tspan x="821.0" dy="11.0">cause?</tspan></text>
<rect x="615.0" y="259.0" width="116.0" height="38.0" rx="2" ry="2" fill="#7DB338"/>
<text x="673.0" y="272.5" text-anchor="middle" font-family="Arial, Helvetica, sans-serif" font-size="9" font-weight="bold" fill="#ffffff" dominant-baseline="middle"><tspan x="673.0" dy="0.0">Resolution time stops</tspan><tspan x="673.0" dy="11.0">Document cause</tspan></text>
<rect x="497.0" y="321.0" width="100.0" height="38.0" rx="2" ry="2" fill="#7DB338"/>
<text x="547.0" y="334.5" text-anchor="middle" font-family="Arial, Helvetica, sans-serif" font-size="9" font-weight="bold" fill="#ffffff" dominant-baseline="middle"><tspan x="547.0" dy="0.0">Call Customer</tspan><tspan x="547.0" dy="11.0">Service Desk</tspan></text>
<polygon points="943.0,359.0 995.0,411.0 943.0,463.0 891.0,411.0" fill="#29ABE2"/>
<text x="943.0" y="400.0" text-anchor="middle" font-family="Arial, Helvetica, sans-serif" font-size="8.5" font-weight="bold" fill="#ffffff" dominant-baseline="middle"><tspan x="943.0" dy="0.0">Incident</tspan><tspan x="943.0" dy="11.0">resolvable at</tspan><tspan x="943.0" dy="11.0">support level?</tspan></text>
<rect x="722.0" y="434.0" width="100.0" height="28.0" rx="2" ry="2" fill="#7DB338"/>
<text x="772.0" y="448.0" text-anchor="middle" font-family="Arial, Helvetica, sans-serif" font-size="9" font-weight="bold" fill="#ffffff" dominant-baseline="middle"><tspan x="772.0" dy="0.0">Call DEV</tspan></text>
<rect x="722.0" y="484.0" width="100.0" height="28.0" rx="2" ry="2" fill="#7DB338"/>
<text x="772.0" y="498.0" text-anchor="middle" font-family="Arial, Helvetica, sans-serif" font-size="9" font-weight="bold" fill="#ffffff" dominant-baseline="middle"><tspan x="772.0" dy="0.0">Incident evaluation</tspan></text>
<polygon points="772.0,538.0 819.0,585.0 772.0,632.0 725.0,585.0" fill="#29ABE2"/>
<text x="772.0" y="579.5" text-anchor="middle" font-family="Arial, Helvetica, sans-serif" font-size="8.5" font-weight="bold" fill="#ffffff" dominant-baseline="middle"><tspan x="772.0" dy="0.0">External</tspan><tspan x="772.0" dy="11.0">cause?</tspan></text>
<rect x="893.0" y="571.0" width="100.0" height="28.0" rx="2" ry="2" fill="#7DB338"/>
<text x="943.0" y="585.0" text-anchor="middle" font-family="Arial, Helvetica, sans-serif" font-size="9" font-weight="bold" fill="#ffffff" dominant-baseline="middle"><tspan x="943.0" dy="0.0">Work on incident</tspan></text>
<rect x="887.0" y="641.0" width="116.0" height="46.0" rx="2" ry="2" fill="#7DB338"/>
<text x="945.0" y="653.0" text-anchor="middle" font-family="Arial, Helvetica, sans-serif" font-size="9" font-weight="bold" fill="#ffffff" dominant-baseline="middle"><tspan x="945.0" dy="0.0">Resolve incident</tspan><tspan x="945.0" dy="11.0">Resolution time stops</tspan><tspan x="945.0" dy="11.0">Document cause</tspan></text>
<rect x="496.0" y="645.0" width="100.0" height="38.0" rx="2" ry="2" fill="#7DB338"/>
<text x="546.0" y="658.5" text-anchor="middle" font-family="Arial, Helvetica, sans-serif" font-size="9" font-weight="bold" fill="#ffffff" dominant-baseline="middle"><tspan x="546.0" dy="0.0">Call Customer</tspan><tspan x="546.0" dy="11.0">Service Desk</tspan></text>
</svg>
